<?xml version="1.0" encoding="utf-8"?>
<!-- Generator: Adobe Illustrator 19.0.0, SVG Export Plug-In . SVG Version: 6.00 Build 0)  -->
<svg version="1.1" id="Layer_1" xmlns="http://www.w3.org/2000/svg" xmlns:xlink="http://www.w3.org/1999/xlink" x="0px" y="0px"
	 viewBox="-260 380 90 33" style="enable-background:new -260 380 90 33;" xml:space="preserve">
<style type="text/css">
	.st0{fill:#7C7B7B;}
</style>
<g>
	<polygon class="st0" points="-242.8,405.1 -242.8,388.4 -238.8,388.4 -238.8,381.1 -259.7,381.1 -259.7,388.4 -255.7,388.4 
		-255.7,405.1 -259.7,405.1 -259.7,411.9 -238.8,411.9 -238.8,405.1 	"/>
	<ellipse class="st0" cx="-174" cy="408.1" rx="3.7" ry="3.8"/>
	<g id="XMLID_22_">
		<g>
			<path id="XMLID_23_" class="st0" d="M-237.5,388.3v6.5h2.9v9.8h-2.9v6.5h16.2v-6.5h-3v-5.7c0-2.4,1.8-4.1,4.2-4.1
				c1.9,0,3.3,0.9,3.3,3v6.8h-3v6.5h15.8v-6.4v-0.1h-2.6V396c0-5.5-4-7.5-8.9-7.5c-3.5,0-6.2,1-8.5,3.6c-0.2,0.2-0.4,0.5-0.6,0.6
				v-4.4H-237.5z"/>
		</g>
	</g>
	<g id="XMLID_17_">
		<g>
			<path id="XMLID_18_" class="st0" d="M-190.6,388.4c-7.2,0-14.3,3.5-14.3,11.6c0,1.7,0.3,3.2,0.9,4.5l0,0v0.1
				c2.2,4.8,7.7,7,13.4,7c4.6,0,11-1.1,12.4-8.2l0.1-0.8h-8.4h-0.3c0,2.4-1.7,3.5-3.7,3.5c-3.8,0-4.1-3.1-4.1-6.1v-0.1l0,0
				c0-3,0.3-6.1,4.1-6.1c3,0,3.5,2.6,3.6,5l8.8-1c-0.9-8.9-9.7-9.5-11.9-9.5C-190.4,388.4-190.6,388.4-190.6,388.4"/>
		</g>
	</g>
</g>
</svg>
